<svg width="783" height="80" viewBox="0 0 783 80" fill="none" xmlns="http://www.w3.org/2000/svg">
<path d="M390.595 45.8583C386.884 45.8775 383.658 46.7712 380.958 48.0925C379.967 46.13 378.976 44.3816 378.801 43.0991C378.607 41.6033 378.374 40.69 378.607 38.9025C378.84 37.115 379.889 34.5695 379.87 34.3754C379.851 34.1812 379.636 33.2679 377.499 33.2487C375.362 33.2291 373.516 33.6566 373.303 34.22C373.089 34.7833 372.681 36.0658 372.409 37.3866C372.04 39.33 368.135 46.2658 365.901 49.8991C365.181 48.4812 364.56 47.2375 364.423 46.2466C364.229 44.7508 363.996 43.8375 364.229 42.05C364.463 40.2625 365.512 37.7175 365.492 37.5229C365.473 37.3287 365.259 36.4154 363.122 36.3962C360.984 36.3766 359.138 36.8041 358.925 37.3675C358.711 37.9312 358.478 39.252 358.031 40.5345C357.584 41.817 352.397 53.397 351.037 56.3887C350.487 57.5996 349.911 58.7981 349.308 59.9833C349.308 59.9833 349.288 60.0416 349.23 60.1387C349.04 60.5103 348.846 60.8795 348.647 61.2462V61.2654C348.356 61.7904 348.045 62.2758 347.889 62.2758C347.773 62.2758 347.559 60.877 347.928 58.9729C348.705 54.9512 350.551 48.695 350.532 48.4812C350.532 48.3645 350.881 47.2766 349.327 46.7129C347.811 46.1495 347.268 47.082 347.131 47.082C346.996 47.082 346.898 47.4125 346.898 47.4125C346.898 47.4125 348.589 40.3791 343.673 40.3791C340.603 40.3791 336.368 43.7404 334.269 46.7712C331.884 48.0693 329.501 49.3711 327.119 50.6766C325.973 51.3179 324.788 51.9591 323.681 52.5612C323.603 52.4837 323.525 52.3862 323.447 52.3087C317.502 45.9554 306.505 41.467 306.971 32.9379C307.146 29.8291 308.215 21.6687 328.091 11.76C344.45 3.69663 357.468 5.93079 359.722 10.8854C362.947 17.9579 352.747 31.092 335.843 32.9958C329.393 33.715 326.012 31.2279 325.157 30.2954C324.263 29.3237 324.127 29.2654 323.797 29.46C323.253 29.7516 323.603 30.6258 323.797 31.1308C324.302 32.4516 326.381 34.7833 329.898 35.93C333.006 36.94 340.564 37.5037 349.716 33.9675C359.955 30.0037 367.96 18.9875 365.609 9.75871C363.258 0.393709 347.714 -2.69546 333.006 2.53079C324.263 5.63996 314.782 10.5358 307.962 16.9087C299.86 24.4858 298.578 31.0725 299.102 33.8316C300.987 43.6237 314.491 49.9966 319.892 54.7179C319.62 54.8733 319.367 55.0095 319.153 55.1262C316.453 56.4666 306.155 61.8483 303.591 67.5412C300.676 73.9916 304.057 78.6162 306.291 79.2374C313.228 81.1612 320.358 77.7029 324.186 71.9904C328.013 66.2783 327.547 58.8562 325.779 55.4562C325.759 55.4174 325.74 55.3783 325.701 55.3395C326.401 54.9316 327.119 54.5041 327.819 54.0962C329.105 53.3361 330.407 52.604 331.724 51.9004C331.063 53.7075 330.578 55.8641 330.345 58.9729C330.053 62.6258 331.549 67.3662 333.511 69.2312C334.386 70.0479 335.416 70.067 336.076 70.067C338.369 70.067 339.399 68.1629 340.545 65.9091C341.944 63.1504 343.207 59.9445 343.207 59.9445C343.207 59.9445 341.633 68.6099 345.908 68.6099C347.462 68.6099 349.036 66.5891 349.735 65.5595V65.5787C349.735 65.5787 349.774 65.5204 349.852 65.3845C350.007 65.132 350.104 64.9762 350.104 64.9762V64.9379C350.726 63.8495 352.125 61.382 354.204 57.2825C356.885 51.9979 359.469 45.392 359.469 45.392C359.469 45.392 359.703 47.0045 360.499 49.6858C360.966 51.2595 361.936 52.9887 362.714 54.6595C362.092 55.5341 361.703 56.0195 361.703 56.0195L361.723 56.0391C361.218 56.6995 360.674 57.4183 360.071 58.1183C357.953 60.6437 355.428 63.5391 355.078 64.3741C354.67 65.365 354.767 66.0841 355.545 66.667C356.108 67.0945 357.118 67.1525 358.148 67.0945C360.052 66.9583 361.393 66.492 362.053 66.2008C363.083 65.8316 364.288 65.2679 365.414 64.4324C367.493 62.8974 368.756 60.702 368.64 57.8075C368.581 56.2141 368.057 54.6208 367.416 53.1245C367.61 52.8529 367.785 52.5808 367.979 52.3087C371.263 47.5095 373.808 42.2441 373.808 42.2441C373.808 42.2441 374.041 43.8566 374.838 46.5383C375.226 47.8983 376.023 49.375 376.722 50.8125C373.633 53.3191 371.729 56.2333 371.049 58.1375C369.825 61.6737 370.777 63.2666 372.584 63.6358C373.4 63.8108 374.566 63.422 375.421 63.0529C376.508 62.7033 377.791 62.1012 379.015 61.207C381.094 59.6725 383.095 57.535 382.978 54.6404C382.92 53.3191 382.571 52.017 382.085 50.7541C384.708 49.6666 388.088 49.0641 392.401 49.5691C401.65 50.657 403.476 56.4275 403.126 58.8566C402.777 61.285 400.834 62.6062 400.193 63.0141C399.551 63.4225 399.338 63.5583 399.396 63.8495C399.474 64.277 399.785 64.2579 400.329 64.1799C401.087 64.0441 405.186 62.2174 405.361 57.7487C405.653 52.0366 400.212 45.8 390.595 45.8583ZM319.251 69.9116C316.181 73.2533 311.906 74.5162 310.061 73.4479C308.079 72.3012 308.856 67.3662 312.625 63.8304C314.918 61.6737 317.871 59.672 319.833 58.4483C320.28 58.1762 320.941 57.7879 321.738 57.302C321.873 57.2241 321.951 57.1854 321.951 57.1854L322.418 56.8937C323.797 61.9454 322.476 66.395 319.251 69.9116ZM341.594 54.7179C340.526 57.3216 338.291 63.9858 336.931 63.6166C335.766 63.3058 335.046 58.2541 336.698 53.2608C337.533 50.7541 339.301 47.762 340.331 46.5966C342.002 44.7312 343.848 44.1091 344.295 44.8675C344.858 45.8583 342.255 53.0858 341.594 54.7179ZM360.033 63.5387C359.586 63.772 359.158 63.9275 358.964 63.8108C358.828 63.7329 359.158 63.422 359.158 63.422C359.158 63.422 361.471 60.9354 362.383 59.8083C362.908 59.1479 363.53 58.3708 364.191 57.4962V57.7487C364.191 60.7216 361.315 62.7229 360.032 63.5387H360.033ZM374.255 60.2941C373.924 60.0608 373.983 59.2837 375.09 56.855C375.518 55.9029 376.528 54.31 378.257 52.775C378.451 53.3966 378.588 53.9991 378.568 54.5625C378.548 58.3125 375.868 59.7112 374.255 60.2941Z" fill="#CD6799"/>
<path d="M573 0H653V80H573V0Z" fill="#F7DF1E"/>
<path d="M594.035 52.1259L600.157 48.4209C601.338 50.515 602.412 52.2869 604.99 52.2869C607.46 52.2869 609.018 51.3206 609.018 47.5619V22H616.536V47.6681C616.536 55.4547 611.971 58.9991 605.312 58.9991C599.298 58.9991 595.807 55.8844 594.035 52.1253" fill="black"/>
<path d="M620.619 50.7503L626.74 47.2062C628.352 49.8378 630.446 51.7709 634.151 51.7709C637.267 51.7709 639.253 50.2134 639.253 48.0653C639.253 45.4878 637.212 44.5747 633.775 43.0716L631.896 42.2653C626.472 39.9569 622.874 37.0569 622.874 30.935C622.874 25.2963 627.17 21 633.883 21C638.663 21 642.099 22.665 644.569 27.0147L638.716 30.7741C637.427 28.465 636.031 27.5522 633.883 27.5522C631.681 27.5522 630.285 28.9484 630.285 30.7741C630.285 33.0294 631.681 33.9428 634.903 35.3391L636.782 36.1444C643.173 38.8834 646.771 41.6756 646.771 47.9581C646.771 54.725 641.454 58.43 634.312 58.43C627.331 58.43 622.82 55.1006 620.619 50.7506" fill="black"/>
<g clip-path="url(#clip0_5:383)">
<g clip-path="url(#clip1_5:383)">
<path d="M14.3367 88.0002C21.6967 88.0002 27.67 82.0268 27.67 74.6668V61.3335H14.3367C6.97667 61.3335 1.00333 67.3068 1.00333 74.6668C1.00333 82.0268 6.97667 88.0002 14.3367 88.0002Z" fill="#0ACF83"/>
<path d="M1.00333 47.9998C1.00333 40.6398 6.97667 34.6665 14.3367 34.6665H27.67V61.3332H14.3367C6.97667 61.3332 1.00333 55.3598 1.00333 47.9998Z" fill="#A259FF"/>
<path d="M1.00333 21.3333C1.00333 13.9733 6.97667 8 14.3367 8H27.67V34.6667H14.3367C6.97667 34.6667 1.00333 28.6933 1.00333 21.3333Z" fill="#F24E1E"/>
<path d="M27.67 8H41.0033C48.3633 8 54.3367 13.9733 54.3367 21.3333C54.3367 28.6933 48.3633 34.6667 41.0033 34.6667H27.67V8Z" fill="#FF7262"/>
<path d="M54.3367 47.9998C54.3367 55.3598 48.3633 61.3332 41.0033 61.3332C33.6433 61.3332 27.67 55.3598 27.67 47.9998C27.67 40.6398 33.6433 34.6665 41.0033 34.6665C48.3633 34.6665 54.3367 40.6398 54.3367 47.9998Z" fill="#1ABCFE"/>
</g>
</g>
<g clip-path="url(#clip2_5:383)">
<path d="M238.335 79.7978L215.248 73.3885L210.103 15.6821H266.637L261.487 73.3796L238.335 79.7978Z" fill="#264DE4"/>
<path d="M257.077 69.7057L261.478 20.4004H238.37V74.8919L257.077 69.7057Z" fill="#2965F1"/>
<path d="M221.898 41.8032L222.532 48.8807H238.37V41.8032H221.898Z" fill="#EBEBEB"/>
<path d="M220.623 27.478L221.266 34.5555H238.37V27.478H220.623Z" fill="#EBEBEB"/>
<path d="M238.37 60.1841L238.339 60.1923L230.457 58.064L229.953 52.4194H222.848L223.84 63.5321L238.337 67.5565L238.37 67.5476V60.1841Z" fill="#EBEBEB"/>
<path d="M223.408 0H231.98V3.58471H226.993V7.16942H231.98V10.7539H223.408V0Z" fill="black"/>
<path d="M233.694 0H242.266V3.11712H237.279V3.7405H242.266V10.9099H233.695V7.63656H238.682V7.01319H233.694V0H233.694Z" fill="black"/>
<path d="M243.981 0H252.553V3.11712H247.566V3.7405H252.553V10.9099H243.981V7.63656H248.968V7.01319H243.981V0H243.981Z" fill="black"/>
<path d="M254.797 41.8029L256.075 27.478H238.346V34.5555H248.318L247.674 41.8029H238.346V48.8804H247.061L246.239 58.0593L238.345 60.1898V67.5529L252.855 63.5319L252.961 62.3361L254.624 43.7034L254.797 41.8029Z" fill="white"/>
</g>
<path d="M766.854 25.9031C765.898 25.5751 764.934 25.2713 763.962 24.9919C764.126 24.3252 764.276 23.6666 764.409 23.0196C766.598 12.3947 765.167 3.83503 760.28 1.01678C755.594 -1.68497 747.93 1.13222 740.191 7.86801C739.428 8.53304 738.682 9.21723 737.954 9.91994C737.466 9.45266 736.97 8.99446 736.466 8.54555C728.354 1.34345 720.224 -1.69199 715.341 1.13432C710.66 3.8445 709.273 11.8912 711.244 21.9606C711.44 22.9579 711.661 23.9501 711.908 24.9361C710.757 25.2631 709.646 25.6112 708.584 25.9817C699.073 29.2975 693 34.4936 693 39.8834C693 45.4501 699.52 51.0336 709.425 54.4192C710.228 54.6926 711.038 54.9459 711.854 55.1789C711.589 56.2409 711.354 57.3101 711.148 58.3852C709.27 68.2799 710.737 76.1364 715.406 78.8294C720.228 81.6105 728.322 78.7522 736.204 71.8627C736.843 71.3026 737.468 70.7267 738.078 70.1354C738.867 70.8963 739.676 71.635 740.506 72.3508C748.14 78.9199 755.68 81.5726 760.345 78.8722C765.162 76.0831 766.728 67.6431 764.695 57.3747C764.535 56.5702 764.356 55.7698 764.157 54.974C764.725 54.8056 765.283 54.6322 765.827 54.4519C776.125 51.0403 782.825 45.5245 782.825 39.8834C782.825 34.474 776.555 29.2427 766.854 25.9031ZM764.62 50.8098C764.129 50.9722 763.625 51.1291 763.112 51.2817C761.975 47.6827 760.441 43.8561 758.563 39.902C760.355 36.0424 761.83 32.2645 762.935 28.6891C763.854 28.955 764.745 29.2354 765.605 29.5312C773.917 32.3929 778.987 36.6234 778.987 39.8834C778.987 43.3557 773.512 47.8634 764.62 50.8098ZM760.931 58.1199C761.83 62.6603 761.958 66.7656 761.363 69.975C760.828 72.8589 759.752 74.7813 758.422 75.5515C755.591 77.1901 749.538 75.0603 743.009 69.442C742.237 68.7766 741.484 68.0897 740.75 67.3824C743.281 64.6143 745.811 61.3964 748.28 57.8224C752.622 57.4371 756.725 56.807 760.445 55.947C760.628 56.6863 760.791 57.4112 760.931 58.1199ZM723.623 75.2684C720.858 76.2449 718.655 76.2729 717.323 75.5052C714.49 73.8712 713.312 67.5628 714.919 59.101C715.11 58.1011 715.328 57.1067 715.574 56.1189C719.254 56.9329 723.326 57.5182 727.679 57.8712C730.165 61.3684 732.767 64.5827 735.39 67.3975C734.832 67.9368 734.262 68.4624 733.679 68.9736C730.193 72.0199 726.701 74.1813 723.623 75.2684ZM710.667 50.7884C706.287 49.2912 702.669 47.3456 700.19 45.2224C697.962 43.3147 696.838 41.4203 696.838 39.8834C696.838 36.6126 701.714 32.4406 709.847 29.6052C710.834 29.2613 711.867 28.9368 712.939 28.6322C714.063 32.2884 715.537 36.1112 717.316 39.9768C715.514 43.8996 714.019 47.7835 712.884 51.4827C712.139 51.2695 711.4 51.0379 710.667 50.7884ZM715.01 21.2234C713.322 12.5964 714.443 6.08871 717.264 4.45538C720.269 2.71573 726.914 5.19608 733.918 11.415C734.375 11.8215 734.824 12.2362 735.266 12.6589C732.656 15.4613 730.077 18.6519 727.614 22.1284C723.389 22.5199 719.345 23.1487 715.627 23.9912C715.398 23.074 715.192 22.1513 715.01 21.2238V21.2234ZM753.756 30.7912C752.878 29.2743 751.967 27.7765 751.025 26.2989C753.891 26.6613 756.636 27.1424 759.215 27.7305C758.441 30.2119 757.476 32.8059 756.34 35.4656C755.51 33.8904 754.649 32.3319 753.756 30.7912ZM737.955 15.4013C739.725 17.3189 741.498 19.4596 743.241 21.7824C739.705 21.6154 736.162 21.6147 732.625 21.7803C734.37 19.4789 736.158 17.341 737.955 15.4013ZM722.053 30.8175C721.172 32.3458 720.327 33.8946 719.518 35.4624C718.4 32.8122 717.444 30.2063 716.664 27.6898C719.226 27.1164 721.959 26.6477 724.807 26.2919C723.854 27.7785 722.936 29.2874 722.053 30.8171V30.8175ZM724.889 53.748C721.947 53.4196 719.173 52.975 716.611 52.4171C717.404 49.8557 718.381 47.1943 719.522 44.4873C720.334 46.0563 721.183 47.606 722.068 49.135C722.979 50.707 723.921 52.2466 724.889 53.748ZM738.061 64.6357C736.242 62.6736 734.428 60.5028 732.657 58.168C734.377 58.2354 736.13 58.2698 737.912 58.2698C739.743 58.2698 741.553 58.2287 743.334 58.1494C741.585 60.5263 739.819 62.7003 738.061 64.6357ZM756.376 44.3491C757.577 47.0859 758.589 49.7333 759.393 52.2508C756.788 52.8452 753.976 53.3238 751.014 53.6792C751.963 52.1742 752.882 50.6504 753.771 49.1087C754.675 47.5417 755.543 45.9547 756.376 44.3491ZM750.447 47.1915C749.087 49.5552 747.65 51.8739 746.138 54.1442C743.401 54.338 740.657 54.4344 737.912 54.4329C735.117 54.4329 732.398 54.3459 729.78 54.1761C728.229 51.9111 726.764 49.5883 725.389 47.2126H725.389C724.021 44.8494 722.742 42.4352 721.557 39.975C722.739 37.5143 724.014 35.0989 725.378 32.734L725.378 32.7343C726.741 30.3688 728.194 28.0559 729.733 25.8006C732.404 25.5985 735.144 25.4933 737.912 25.4933H737.912C740.693 25.4933 743.436 25.5996 746.107 25.8031C747.63 28.055 749.074 30.3599 750.435 32.7136C751.803 35.0733 753.095 37.4769 754.307 39.9206C753.107 42.3893 751.82 44.8145 750.447 47.1915ZM758.363 4.34099C761.371 6.07573 762.541 13.0712 760.651 22.2449C760.53 22.8301 760.395 23.4263 760.247 24.0308C756.52 23.1705 752.474 22.5308 748.237 22.1333C745.769 18.6185 743.211 15.4231 740.644 12.6568C741.317 12.0082 742.006 11.3764 742.71 10.762C749.341 4.99117 755.539 2.71257 758.363 4.34099ZM737.912 31.8624C742.342 31.8624 745.933 35.4536 745.933 39.8834C745.933 44.3133 742.342 47.9045 737.912 47.9045C733.482 47.9045 729.891 44.3133 729.891 39.8834C729.891 35.4536 733.482 31.8624 737.912 31.8624Z" fill="#00D8FF"/>
<path d="M445 69.6847C445 75.3822 449.618 80 455.315 80H514.684C520.382 80 525 75.3816 525 69.6847V10.3156C525 4.61781 520.382 0 514.685 0H455.316C449.618 0 445 4.61844 445 10.3153V69.6844V69.6847Z" fill="#563D7C"/>
<path d="M478.174 35.6056V24.2766H488.147C489.097 24.2766 490.012 24.3556 490.894 24.5141C491.776 24.6722 492.556 24.9547 493.235 25.3619C493.913 25.7691 494.456 26.3344 494.863 27.0578C495.27 27.7816 495.473 28.7088 495.473 29.8391C495.473 31.8744 494.863 33.3444 493.642 34.2488C492.421 35.1534 490.86 35.6056 488.961 35.6056H478.174ZM467.523 16V64.4375H490.996C493.167 64.4375 495.281 64.1663 497.339 63.6234C499.397 63.0806 501.228 62.2441 502.834 61.1134C504.439 59.9828 505.717 58.5241 506.667 56.7378C507.617 54.9512 508.092 52.8369 508.092 50.3947C508.092 47.3644 507.357 44.7753 505.887 42.6272C504.417 40.4788 502.189 38.975 499.204 38.1156C501.375 37.0756 503.015 35.7412 504.123 34.1131C505.231 32.485 505.785 30.45 505.785 28.0075C505.785 25.7463 505.412 23.8469 504.666 22.3091C503.919 20.7716 502.868 19.5391 501.511 18.6119C500.154 17.6847 498.526 17.0175 496.627 16.6106C494.727 16.2034 492.624 16 490.318 16H467.523ZM478.174 56.1609V42.8644H489.775C492.081 42.8644 493.936 43.3956 495.338 44.4587C496.74 45.5216 497.441 47.2966 497.441 49.7841C497.441 51.0506 497.226 52.0906 496.796 52.9047C496.367 53.7188 495.79 54.3634 495.066 54.8381C494.343 55.3131 493.506 55.6522 492.556 55.8559C491.606 56.0591 490.612 56.1609 489.571 56.1609H478.174Z" fill="white"/>
<g clip-path="url(#clip3_5:383)">
<path d="M161.637 15.6821L156.487 73.3796L133.335 79.7978L110.248 73.3885L105.103 15.6821H161.637Z" fill="#E44D26"/>
<path d="M133.37 74.8919L152.077 69.7057L156.478 20.4004H133.37V74.8919Z" fill="#F16529"/>
<path d="M123.358 34.5555H133.37V27.478H115.623L115.792 29.3768L117.532 48.8804H133.37V41.8029H124.005L123.358 34.5555Z" fill="#EBEBEB"/>
<path d="M124.953 52.4194H117.848L118.84 63.5321L133.337 67.5565L133.37 67.5476V60.1841L133.339 60.1923L125.457 58.064L124.953 52.4194Z" fill="#EBEBEB"/>
<path d="M110.363 0H113.959V3.55346H117.25V0H120.847V10.7608H117.25V7.15745H113.96V10.7608H110.363V0H110.363Z" fill="black"/>
<path d="M125.576 3.56853H122.41V0H132.341V3.56853H129.173V10.7608H125.577V3.56853H125.577H125.576Z" fill="black"/>
<path d="M133.917 0H137.668L139.975 3.78105L142.279 0H146.031V10.7608H142.449V5.42715L139.975 9.25319H139.912L137.436 5.42715V10.7608H133.917V0Z" fill="black"/>
<path d="M147.821 0H151.419V7.20399H156.477V10.7608H147.821V0H147.821Z" fill="black"/>
<path d="M133.346 48.8807H142.061L141.239 58.0596L133.345 60.1901V67.5533L147.855 63.5322L147.961 62.3364L149.624 43.7037L149.797 41.8032H133.346V48.8807Z" fill="white"/>
<path d="M133.346 34.5382V34.5555H150.441L150.583 32.9648L150.906 29.3768L151.075 27.478H133.346V34.5384V34.5382Z" fill="white"/>
</g>
<defs>
<clipPath id="clip0_5:383">
<rect width="56.74" height="80" fill="white"/>
</clipPath>
<clipPath id="clip1_5:383">
<rect width="53.34" height="80" fill="white" transform="translate(1 8)"/>
</clipPath>
<clipPath id="clip2_5:383">
<rect width="56.74" height="80" fill="white" transform="translate(210)"/>
</clipPath>
<clipPath id="clip3_5:383">
<rect width="56.74" height="80" fill="white" transform="translate(105)"/>
</clipPath>
</defs>
</svg>
